<svg width="55" height="23" fill="none" xmlns="http://www.w3.org/2000/svg"><path d="M.728.192h3.744V18H.728V.192zm13.462 18c-1.36 0-2.583-.28-3.671-.84a6.439 6.439 0 01-2.52-2.376c-.608-1.008-.912-2.152-.912-3.432 0-1.28.304-2.424.912-3.432a6.27 6.27 0 012.52-2.352c1.088-.576 2.312-.864 3.672-.864 1.36 0 2.576.288 3.648.864a6.27 6.27 0 012.52 2.352c.608 1.008.912 2.152.912 3.432 0 1.28-.304 2.424-.912 3.432a6.439 6.439 0 01-2.52 2.376c-1.072.56-2.288.84-3.648.84zm0-3.072c.96 0 1.745-.32 2.353-.96.624-.656.936-1.528.936-2.616s-.312-1.952-.936-2.592c-.608-.656-1.392-.984-2.352-.984s-1.752.328-2.376.984c-.624.64-.936 1.504-.936 2.592s.312 1.96.936 2.616c.624.64 1.416.96 2.376.96zM37.193 5.088V15.84c0 2.368-.616 4.128-1.848 5.28-1.232 1.152-3.032 1.728-5.4 1.728-1.248 0-2.432-.152-3.552-.456-1.12-.304-2.048-.744-2.784-1.32l1.488-2.688c.544.448 1.232.8 2.064 1.056a7.992 7.992 0 002.496.408c1.296 0 2.248-.296 2.856-.888.624-.576.936-1.456.936-2.64v-.552c-.976 1.072-2.336 1.608-4.08 1.608-1.184 0-2.272-.256-3.264-.768a6.055 6.055 0 01-2.328-2.208c-.576-.944-.864-2.032-.864-3.264 0-1.232.288-2.32.864-3.264a5.88 5.88 0 012.328-2.184c.992-.528 2.08-.792 3.264-.792 1.872 0 3.296.616 4.272 1.848V5.088h3.552zm-7.08 9.216c.992 0 1.8-.288 2.424-.864.64-.592.96-1.36.96-2.304 0-.944-.32-1.704-.96-2.28-.624-.592-1.432-.888-2.424-.888s-1.808.296-2.448.888c-.64.576-.96 1.336-.96 2.28 0 .944.32 1.712.96 2.304.64.576 1.456.864 2.448.864zm16.809 3.888c-1.36 0-2.584-.28-3.672-.84a6.439 6.439 0 01-2.52-2.376c-.608-1.008-.912-2.152-.912-3.432 0-1.28.304-2.424.912-3.432a6.27 6.27 0 012.52-2.352c1.088-.576 2.312-.864 3.672-.864 1.36 0 2.576.288 3.648.864a6.27 6.27 0 012.52 2.352c.608 1.008.912 2.152.912 3.432 0 1.28-.304 2.424-.912 3.432a6.439 6.439 0 01-2.52 2.376c-1.072.56-2.288.84-3.648.84zm0-3.072c.96 0 1.744-.32 2.352-.96.624-.656.936-1.528.936-2.616s-.312-1.952-.936-2.592c-.608-.656-1.392-.984-2.352-.984s-1.752.328-2.376.984c-.624.64-.936 1.504-.936 2.592s.312 1.96.936 2.616c.624.64 1.416.96 2.376.96z" fill="#252B42"/></svg>